<svg xmlns="http://www.w3.org/2000/svg" width="126" height="35" viewBox="0 0 126 35" fill="none">
  <path d="M14.6638 26.4626L5.75213 33.2202C5.4365 33.4595 5.05124 33.5891 4.65512 33.5891H122.554C123.556 33.5891 124.369 32.7762 124.369 31.7735V30.6816C124.369 29.6789 123.556 28.866 122.554 28.866H122.308C121.406 28.866 120.641 28.2048 120.511 27.3129L117.381 5.89085C117.135 4.2082 114.918 3.75661 114.034 5.209L109.066 13.3657C108.49 14.3125 107.207 14.5261 106.355 13.8172L103.2 11.1933C102.391 10.5199 101.18 10.6742 100.565 11.529L96.0882 17.7533C95.4734 18.6081 94.2627 18.7623 93.4532 18.0889L89.6924 14.9607C89.0891 14.4589 88.2317 14.4014 87.5669 14.8183L78.7746 20.3309C78.628 20.4228 78.469 20.4933 78.3025 20.5402L75.1777 21.4207L70.0991 22.752C69.9488 22.7914 69.7941 22.8113 69.6387 22.8113H57.6595C57.4441 22.8113 57.2303 22.773 57.0283 22.698L51.8195 20.7664C51.3124 20.5783 50.7478 20.6262 50.2795 20.8969L44.6365 24.159C44.0897 24.4751 43.418 24.4843 42.8627 24.1834L38.9499 22.0629C38.3365 21.7304 37.5869 21.7789 37.0214 22.1875L32.9801 25.1078C32.4576 25.4853 31.7742 25.5576 31.1843 25.2976L20.605 20.6341C19.8092 20.2833 18.8764 20.5461 18.3808 21.2608L15.0587 26.0506C14.9496 26.2079 14.8163 26.3469 14.6638 26.4626Z" fill="url(#paint0_linear_413_11377)"/>
  <path d="M0.908203 33.5887H4.65203C5.05005 33.5887 5.43705 33.4579 5.75346 33.2164L14.6194 26.4507C14.8008 26.3122 14.9546 26.1408 15.0725 25.9453L18.2084 20.7478C18.6932 19.9443 19.7105 19.6426 20.555 20.052L31.1571 25.1919C31.76 25.4843 32.475 25.4207 33.0169 25.0266L37.0176 22.1173C37.5849 21.7048 38.339 21.6559 38.9548 21.9917L42.8583 24.1207C43.4159 24.4248 44.0917 24.4155 44.6407 24.0961L50.2761 20.8177C50.7463 20.5441 51.3143 20.4958 51.8239 20.686L57.0267 22.6277C57.2297 22.7035 57.4447 22.7423 57.6615 22.7423H63.6032H69.6307C69.7913 22.7423 69.9513 22.721 70.1064 22.6789L78.2689 20.4628C78.4575 20.4117 78.6365 20.3304 78.7991 20.2221L87.5378 14.4064C88.2142 13.9562 89.1074 14.0103 89.7246 14.5387L93.7472 17.983C94.5803 18.6963 95.8508 18.5138 96.4494 17.5948L100.524 11.339C101.188 10.3201 102.646 10.2289 103.432 11.1571L105.927 14.1057C106.758 15.0883 108.32 14.9175 108.919 13.7784L113.626 4.83588C114.439 3.29023 116.752 3.67228 117.026 5.3974L120.495 27.304C120.635 28.1861 121.396 28.8355 122.289 28.8355H124.369" stroke="#58BD7D" stroke-width="1.8156" stroke-linecap="round" stroke-linejoin="round"/>
  <defs>
    <linearGradient id="paint0_linear_413_11377" x1="63.3649" y1="-58.9039" x2="62.8414" y2="33.5902" gradientUnits="userSpaceOnUse">
      <stop stop-color="#45B36B"/>
      <stop offset="1" stop-color="#45B36B" stop-opacity="0"/>
    </linearGradient>
  </defs>
</svg>