<svg xmlns="http://www.w3.org/2000/svg" width="126" height="28" viewBox="0 0 126 28" fill="none">
  <path d="M112.551 14.352L119.484 25.9906C119.811 26.5403 120.404 26.877 121.044 26.877H2.72375C1.72102 26.877 0.90815 26.0642 0.90815 25.0614V24.2221C0.90815 23.2194 1.72102 22.4065 2.72375 22.4065H3.50972C4.14837 22.4065 4.74005 22.071 5.06788 21.5229L10.6363 12.2131C10.9144 11.748 11.3858 11.4315 11.9216 11.3501L16.9694 10.5828C17.3847 10.5197 17.7653 10.3145 18.0463 10.0022L21.8863 5.73429C22.67 4.8632 24.0614 4.95164 24.7286 5.91495L29.5029 12.8087C29.7927 13.2272 30.245 13.5048 30.7494 13.5738L36.7938 14.4007C37.0742 14.439 37.3596 14.4113 37.6274 14.3197L48.2523 10.6862C48.6333 10.5559 48.9602 10.3026 49.1815 9.96623L54.603 1.72598C55.0582 1.03419 55.9238 0.738023 56.7073 1.00598L61.9652 2.80409C62.3981 2.95214 62.7592 3.25818 62.9762 3.66099L67.3676 11.8136C67.5948 12.2354 67.9796 12.5503 68.438 12.6897L74.0793 14.4045C74.1985 14.4407 74.3136 14.4891 74.4228 14.5489L80.6768 17.9709C81.2048 18.2598 81.8416 18.2683 82.377 17.9936L86.3692 15.9457C86.9618 15.6417 87.6732 15.6866 88.2229 16.0626L92.2949 18.8477C92.8199 19.2067 93.4945 19.2649 94.0732 19.001L105.854 13.6292C106.091 13.5213 106.348 13.4655 106.608 13.4655H110.991C111.631 13.4655 112.224 13.8023 112.551 14.352Z" fill="url(#paint0_linear_413_11396)"/>
  <path d="M124.369 26.877H121.044C120.404 26.877 119.811 26.5403 119.484 25.9906L112.551 14.352C112.224 13.8023 111.631 13.4655 110.991 13.4655H106.608C106.348 13.4655 106.091 13.5213 105.854 13.6292L94.0732 19.001C93.4945 19.2649 92.8199 19.2067 92.2949 18.8477L88.2229 16.0626C87.6732 15.6866 86.9618 15.6417 86.3692 15.9457L82.377 17.9936C81.8416 18.2683 81.2048 18.2598 80.6768 17.9709L74.4228 14.5489C74.3136 14.4891 74.1985 14.4407 74.0793 14.4045L68.438 12.6897C67.9796 12.5503 67.5948 12.2354 67.3676 11.8136L62.9762 3.66099C62.7592 3.25818 62.3981 2.95214 61.9652 2.80409L56.7073 1.00598C55.9238 0.738023 55.0582 1.03419 54.603 1.72598L49.1815 9.96623C48.9602 10.3026 48.6333 10.5559 48.2523 10.6862L37.6274 14.3197C37.3596 14.4113 37.0742 14.439 36.7938 14.4007L30.7494 13.5738C30.245 13.5048 29.7927 13.2272 29.5029 12.8087L24.7286 5.91495C24.0614 4.95164 22.67 4.8632 21.8863 5.73429L18.0463 10.0022C17.7653 10.3145 17.3847 10.5197 16.9694 10.5828L11.9216 11.3501C11.3858 11.4315 10.9144 11.748 10.6363 12.2131L5.06788 21.5229C4.74005 22.071 4.14837 22.4065 3.50972 22.4065H0.908152" stroke="#D33535" stroke-width="1.8156" stroke-linecap="round" stroke-linejoin="round"/>
  <defs>
    <linearGradient id="paint0_linear_413_11396" x1="61.9124" y1="-47.6312" x2="62.2522" y2="26.8788" gradientUnits="userSpaceOnUse">
      <stop stop-color="#EF466F"/>
      <stop offset="1" stop-color="#EF466F" stop-opacity="0"/>
    </linearGradient>
  </defs>
</svg>