<svg width="115" height="43" viewBox="0 0 115 43" fill="none" xmlns="http://www.w3.org/2000/svg">
<g clip-path="url(#clip0_524_8561)">
<path d="M0 0V43" stroke="white" stroke-opacity="0.16"/>
<path d="M19.1667 0V43" stroke="white" stroke-opacity="0.16"/>
<path d="M38.3334 0V43" stroke="white" stroke-opacity="0.16"/>
<path d="M57.5 0V43" stroke="white" stroke-opacity="0.16"/>
<path d="M76.6667 0V43" stroke="white" stroke-opacity="0.16"/>
<path d="M95.8333 0V43" stroke="white" stroke-opacity="0.16"/>
<path d="M115 0V43" stroke="white" stroke-opacity="0.16"/>
<mask id="mask0_524_8561" style="mask-type:alpha" maskUnits="userSpaceOnUse" x="-1" y="11" width="290" height="94">
<path d="M7.14823 37.3118L-0.639057 57.0207C-0.803945 57.438 -0.888611 57.8827 -0.888611 58.3314V100.766C-0.888611 102.735 0.708319 104.332 2.67823 104.332H284.496C286.466 104.332 288.063 102.735 288.063 100.766V37.6251C288.063 35.5818 286.35 33.9562 284.309 34.0631L271.79 34.7194C270.968 34.7625 270.157 34.5204 269.494 34.0341L240.133 12.5091C238.902 11.6067 237.233 11.5875 235.982 12.4614L206.863 32.7966C205.646 33.646 204.031 33.6538 202.807 32.8162L172.462 12.0596C171.492 11.3963 170.258 11.253 169.163 11.6765L145.269 20.9101C144.448 21.2276 143.538 21.2299 142.714 20.9165L118.162 11.5693C117.211 11.2072 116.15 11.2687 115.247 11.7383L90.3565 24.6847C89.2994 25.2345 88.0376 25.2202 86.9933 24.6465L64.3508 12.2087C63.031 11.4837 61.398 11.6657 60.2701 12.6635L35.9719 34.1602C35.3198 34.7372 34.4791 35.0556 33.6084 35.0556H10.4655C9.00154 35.0556 7.68621 35.9502 7.14823 37.3118Z" fill="url(#paint0_linear_524_8561)"/>
</mask>
<g mask="url(#mask0_524_8561)">
<path d="M1.6398 11.7646C1.80981 11.547 2.12403 11.5084 2.34164 11.6784C2.55924 11.8484 2.59782 12.1627 2.42781 12.3803L-42.6477 70.0743L-43.4357 69.4586L1.6398 11.7646Z" fill="#2BFFC3" fill-opacity="0.12"/>
<path d="M5.61215 11.7646C5.78216 11.547 6.09639 11.5084 6.31399 11.6784C6.53159 11.8484 6.57017 12.1627 6.40016 12.3803L-38.6753 70.0743L-39.4634 69.4586L5.61215 11.7646Z" fill="#2BFFC3" fill-opacity="0.12"/>
<path d="M9.5845 11.7646C9.75451 11.547 10.0687 11.5084 10.2863 11.6784C10.5039 11.8484 10.5425 12.1627 10.3725 12.3803L-34.703 70.0743L-35.491 69.4586L9.5845 11.7646Z" fill="#2BFFC3" fill-opacity="0.12"/>
<path d="M13.5569 11.7646C13.7269 11.547 14.0411 11.5084 14.2588 11.6784C14.4764 11.8484 14.5149 12.1627 14.3449 12.3803L-30.7306 70.0743L-31.5186 69.4586L13.5569 11.7646Z" fill="#2BFFC3" fill-opacity="0.12"/>
<path d="M17.5293 11.7646C17.6993 11.547 18.0135 11.5084 18.2311 11.6784C18.4487 11.8484 18.4873 12.1627 18.3173 12.3803L-26.7582 70.0743L-27.5462 69.4586L17.5293 11.7646Z" fill="#2BFFC3" fill-opacity="0.12"/>
<path d="M21.5016 11.7646C21.6716 11.547 21.9859 11.5084 22.2035 11.6784C22.4211 11.8484 22.4596 12.1627 22.2896 12.3803L-22.7859 70.0743L-23.5739 69.4586L21.5016 11.7646Z" fill="#2BFFC3" fill-opacity="0.12"/>
<path d="M25.474 11.7646C25.644 11.547 25.9583 11.5084 26.1759 11.6784C26.3935 11.8484 26.4321 12.1627 26.262 12.3803L-18.8135 70.0743L-19.6015 69.4586L25.474 11.7646Z" fill="#2BFFC3" fill-opacity="0.12"/>
<path d="M29.4464 11.7646C29.6164 11.547 29.9306 11.5084 30.1482 11.6784C30.3658 11.8484 30.4044 12.1627 30.2344 12.3803L-14.8411 70.0743L-15.6291 69.4586L29.4464 11.7646Z" fill="#2BFFC3" fill-opacity="0.12"/>
<path d="M33.4187 11.7646C33.5887 11.547 33.903 11.5084 34.1206 11.6784C34.3382 11.8484 34.3768 12.1627 34.2067 12.3803L-10.8688 70.0743L-11.6568 69.4586L33.4187 11.7646Z" fill="#2BFFC3" fill-opacity="0.12"/>
<path d="M37.3911 11.7646C37.5612 11.547 37.8754 11.5084 38.093 11.6784C38.3106 11.8484 38.3492 12.1627 38.1792 12.3803L-6.89635 70.0743L-7.68436 69.4586L37.3911 11.7646Z" fill="#2BFFC3" fill-opacity="0.12"/>
<path d="M41.3635 11.7646C41.5335 11.547 41.8477 11.5084 42.0653 11.6784C42.2829 11.8484 42.3215 12.1627 42.1515 12.3803L-2.924 70.0743L-3.71201 69.4586L41.3635 11.7646Z" fill="#2BFFC3" fill-opacity="0.12"/>
<path d="M45.3358 11.7646C45.5059 11.547 45.8201 11.5084 46.0377 11.6784C46.2553 11.8484 46.2939 12.1627 46.1239 12.3803L1.04835 70.0743L0.260342 69.4586L45.3358 11.7646Z" fill="#2BFFC3" fill-opacity="0.12"/>
<path d="M49.3082 11.7646C49.4782 11.547 49.7924 11.5084 50.01 11.6784C50.2276 11.8484 50.2662 12.1627 50.0962 12.3803L5.0207 70.0743L4.23269 69.4586L49.3082 11.7646Z" fill="#2BFFC3" fill-opacity="0.12"/>
<path d="M53.2806 11.7646C53.4506 11.547 53.7648 11.5084 53.9824 11.6784C54.2 11.8484 54.2386 12.1627 54.0686 12.3803L8.99312 70.0743L8.20511 69.4586L53.2806 11.7646Z" fill="#2BFFC3" fill-opacity="0.12"/>
<path d="M57.253 11.7646C57.423 11.547 57.7372 11.5084 57.9548 11.6784C58.1724 11.8484 58.211 12.1627 58.041 12.3803L12.9655 70.0743L12.1775 69.4586L57.253 11.7646Z" fill="#2BFFC3" fill-opacity="0.12"/>
<path d="M61.2253 11.7646C61.3953 11.547 61.7095 11.5084 61.9271 11.6784C62.1448 11.8484 62.1833 12.1627 62.0133 12.3803L16.9378 70.0743L16.1498 69.4586L61.2253 11.7646Z" fill="#2BFFC3" fill-opacity="0.12"/>
<path d="M65.1977 11.7646C65.3677 11.547 65.682 11.5084 65.8996 11.6784C66.1172 11.8484 66.1557 12.1627 65.9857 12.3803L20.9102 70.0743L20.1222 69.4586L65.1977 11.7646Z" fill="#2BFFC3" fill-opacity="0.12"/>
<path d="M69.1701 11.7646C69.3401 11.547 69.6543 11.5084 69.8719 11.6784C70.0895 11.8484 70.1281 12.1627 69.9581 12.3803L24.8826 70.0743L24.0946 69.4586L69.1701 11.7646Z" fill="#2BFFC3" fill-opacity="0.12"/>
<path d="M73.1424 11.7646C73.3124 11.547 73.6267 11.5084 73.8443 11.6784C74.0619 11.8484 74.1004 12.1627 73.9304 12.3803L28.8549 70.0743L28.0669 69.4586L73.1424 11.7646Z" fill="#2BFFC3" fill-opacity="0.12"/>
<path d="M77.1148 11.7646C77.2848 11.547 77.5991 11.5084 77.8167 11.6784C78.0343 11.8484 78.0729 12.1627 77.9028 12.3803L32.8273 70.0743L32.0393 69.4586L77.1148 11.7646Z" fill="#2BFFC3" fill-opacity="0.12"/>
<path d="M81.0872 11.7646C81.2572 11.547 81.5714 11.5084 81.789 11.6784C82.0066 11.8484 82.0452 12.1627 81.8752 12.3803L36.7997 70.0743L36.0117 69.4586L81.0872 11.7646Z" fill="#2BFFC3" fill-opacity="0.12"/>
<path d="M85.0595 11.7646C85.2296 11.547 85.5438 11.5084 85.7614 11.6784C85.979 11.8484 86.0176 12.1627 85.8476 12.3803L40.772 70.0743L39.984 69.4586L85.0595 11.7646Z" fill="#2BFFC3" fill-opacity="0.12"/>
<path d="M89.0319 11.7646C89.2019 11.547 89.5161 11.5084 89.7337 11.6784C89.9513 11.8484 89.9899 12.1627 89.8199 12.3803L44.7444 70.0743L43.9564 69.4586L89.0319 11.7646Z" fill="#2BFFC3" fill-opacity="0.12"/>
<path d="M93.0043 11.7646C93.1743 11.547 93.4885 11.5084 93.7061 11.6784C93.9237 11.8484 93.9623 12.1627 93.7923 12.3803L48.7168 70.0743L47.9288 69.4586L93.0043 11.7646Z" fill="#2BFFC3" fill-opacity="0.12"/>
<path d="M96.9767 11.7646C97.1467 11.547 97.4609 11.5084 97.6785 11.6784C97.8961 11.8484 97.9347 12.1627 97.7647 12.3803L52.6892 70.0743L51.9012 69.4586L96.9767 11.7646Z" fill="#2BFFC3" fill-opacity="0.12"/>
<path d="M100.949 11.7646C101.119 11.547 101.433 11.5084 101.651 11.6784C101.868 11.8484 101.907 12.1627 101.737 12.3803L56.6615 70.0743L55.8735 69.4586L100.949 11.7646Z" fill="#2BFFC3" fill-opacity="0.12"/>
<path d="M104.921 11.7646C105.091 11.547 105.406 11.5084 105.623 11.6784C105.841 11.8484 105.879 12.1627 105.709 12.3803L60.6339 70.0743L59.8459 69.4586L104.921 11.7646Z" fill="#2BFFC3" fill-opacity="0.12"/>
<path d="M108.894 11.7646C109.064 11.547 109.378 11.5084 109.596 11.6784C109.813 11.8484 109.852 12.1627 109.682 12.3803L64.6063 70.0743L63.8183 69.4586L108.894 11.7646Z" fill="#2BFFC3" fill-opacity="0.12"/>
<path d="M112.866 11.7646C113.036 11.547 113.35 11.5084 113.568 11.6784C113.786 11.8484 113.824 12.1627 113.654 12.3803L68.5786 70.0743L67.7906 69.4586L112.866 11.7646Z" fill="#2BFFC3" fill-opacity="0.12"/>
<path d="M116.838 11.7646C117.008 11.547 117.323 11.5084 117.54 11.6784C117.758 11.8484 117.796 12.1627 117.626 12.3803L72.551 70.0743L71.763 69.4586L116.838 11.7646Z" fill="#2BFFC3" fill-opacity="0.12"/>
<path d="M120.811 11.7646C120.981 11.547 121.295 11.5084 121.513 11.6784C121.73 11.8484 121.769 12.1627 121.599 12.3803L76.5233 70.0743L75.7353 69.4586L120.811 11.7646Z" fill="#2BFFC3" fill-opacity="0.12"/>
<path d="M124.783 11.7646C124.953 11.547 125.267 11.5084 125.485 11.6784C125.703 11.8484 125.741 12.1627 125.571 12.3803L80.4957 70.0743L79.7077 69.4586L124.783 11.7646Z" fill="#2BFFC3" fill-opacity="0.12"/>
<path d="M128.756 11.7646C128.926 11.547 129.24 11.5084 129.457 11.6784C129.675 11.8484 129.714 12.1627 129.544 12.3803L84.4681 70.0743L83.6801 69.4586L128.756 11.7646Z" fill="#2BFFC3" fill-opacity="0.12"/>
<path d="M132.728 11.7646C132.898 11.547 133.212 11.5084 133.43 11.6784C133.647 11.8484 133.686 12.1627 133.516 12.3803L88.4404 70.0743L87.6524 69.4586L132.728 11.7646Z" fill="#2BFFC3" fill-opacity="0.12"/>
<path d="M136.7 11.7646C136.87 11.547 137.185 11.5084 137.402 11.6784C137.62 11.8484 137.658 12.1627 137.488 12.3803L92.4129 70.0743L91.6248 69.4586L136.7 11.7646Z" fill="#2BFFC3" fill-opacity="0.12"/>
<path d="M140.673 11.7646C140.843 11.547 141.157 11.5084 141.375 11.6784C141.592 11.8484 141.631 12.1627 141.461 12.3803L96.3852 70.0743L95.5972 69.4586L140.673 11.7646Z" fill="#2BFFC3" fill-opacity="0.12"/>
<path d="M144.645 11.7646C144.815 11.547 145.129 11.5084 145.347 11.6784C145.564 11.8484 145.603 12.1627 145.433 12.3803L100.358 70.0743L99.5695 69.4586L144.645 11.7646Z" fill="#2BFFC3" fill-opacity="0.12"/>
<path d="M148.617 11.7646C148.787 11.547 149.102 11.5084 149.319 11.6784C149.537 11.8484 149.575 12.1627 149.405 12.3803L104.33 70.0743L103.542 69.4586L148.617 11.7646Z" fill="#2BFFC3" fill-opacity="0.12"/>
<path d="M152.59 11.7646C152.76 11.547 153.074 11.5084 153.292 11.6784C153.509 11.8484 153.548 12.1627 153.378 12.3803L108.302 70.0743L107.514 69.4586L152.59 11.7646Z" fill="#2BFFC3" fill-opacity="0.12"/>
<path d="M156.562 11.7646C156.732 11.547 157.046 11.5084 157.264 11.6784C157.482 11.8484 157.52 12.1627 157.35 12.3803L112.275 70.0743L111.487 69.4586L156.562 11.7646Z" fill="#2BFFC3" fill-opacity="0.12"/>
</g>
<g filter="url(#filter0_dd_524_8561)">
<path d="M-4 63.6951L6.58632 38.148C7.13852 36.8154 8.43899 35.9466 9.88145 35.9466H33.7149C34.6029 35.9466 35.459 35.6154 36.1157 35.0176L60.1571 13.1364C61.2715 12.1222 62.9029 11.9176 64.2332 12.6252L87.5389 25.0232C88.5816 25.5779 89.8313 25.5805 90.8763 25.03L115.236 12.1989C116.146 11.72 117.217 11.6565 118.177 12.0247L142.319 21.2903C143.136 21.6039 144.039 21.6062 144.858 21.2966L170.303 11.6758C170.706 11.5234 171.134 11.4453 171.565 11.4453H236.919C237.67 11.4453 238.402 11.6823 239.01 12.1226L269.5 34.187C270.16 34.6643 270.963 34.9016 271.776 34.8595L288.063 34.0168" stroke="#2BFFC3" stroke-width="1.48618" stroke-linecap="round"/>
</g>
</g>
<defs>
<filter id="filter0_dd_524_8561" x="-8.74329" y="8.91873" width="301.549" height="63.5197" filterUnits="userSpaceOnUse" color-interpolation-filters="sRGB">
<feFlood flood-opacity="0" result="BackgroundImageFix"/>
<feColorMatrix in="SourceAlpha" type="matrix" values="0 0 0 0 0 0 0 0 0 0 0 0 0 0 0 0 0 0 127 0" result="hardAlpha"/>
<feOffset dy="4"/>
<feGaussianBlur stdDeviation="2"/>
<feComposite in2="hardAlpha" operator="out"/>
<feColorMatrix type="matrix" values="0 0 0 0 0 0 0 0 0 0 0 0 0 0 0 0 0 0 0.54 0"/>
<feBlend mode="normal" in2="BackgroundImageFix" result="effect1_dropShadow_524_8561"/>
<feColorMatrix in="SourceAlpha" type="matrix" values="0 0 0 0 0 0 0 0 0 0 0 0 0 0 0 0 0 0 127 0" result="hardAlpha"/>
<feOffset dy="1.18895"/>
<feGaussianBlur stdDeviation="1.48618"/>
<feComposite in2="hardAlpha" operator="out"/>
<feColorMatrix type="matrix" values="0 0 0 0 0.101961 0 0 0 0 0.662745 0 0 0 0 0.458824 0 0 0 0.3 0"/>
<feBlend mode="normal" in2="effect1_dropShadow_524_8561" result="effect2_dropShadow_524_8561"/>
<feBlend mode="normal" in="SourceGraphic" in2="effect2_dropShadow_524_8561" result="shape"/>
</filter>
<linearGradient id="paint0_linear_524_8561" x1="143.587" y1="11" x2="143.587" y2="104.332" gradientUnits="userSpaceOnUse">
<stop stop-color="white"/>
<stop offset="0.535816" stop-color="white" stop-opacity="0"/>
</linearGradient>
<clipPath id="clip0_524_8561">
<rect width="115" height="43" fill="white"/>
</clipPath>
</defs>
</svg>
